<?xml version="1.0" standalone="no"?>
<!DOCTYPE svg PUBLIC "-//W3C//DTD SVG 20010904//EN"
 "http://www.w3.org/TR/2001/REC-SVG-20010904/DTD/svg10.dtd">
<svg version="1.0" xmlns="http://www.w3.org/2000/svg"
 width="512.000000pt" height="512.000000pt" viewBox="0 0 512.000000 512.000000"
 preserveAspectRatio="xMidYMid meet">
<metadata>
Created by potrace 1.14, written by Peter Selinger 2001-2017
</metadata>
<g transform="translate(0.000000,512.000000) scale(0.100000,-0.100000)"
fill="#000000" stroke="none">
<path d="M2760 4346 c-50 -26 -115 -42 -105 -26 3 6 -1 7 -9 4 -9 -3 -14 -9
-12 -13 2 -3 -10 -7 -27 -8 -17 -1 -35 -7 -41 -13 -14 -14 -39 -13 -30 2 5 8
2 9 -10 5 -11 -5 -15 -3 -10 5 5 7 2 9 -9 5 -17 -6 -31 18 -21 35 3 5 -8 2
-26 -7 -17 -9 -34 -14 -38 -11 -3 3 -12 0 -20 -6 -8 -7 -20 -13 -26 -14 -25
-3 -56 -17 -56 -26 0 -6 -7 -8 -15 -4 -22 8 -45 -4 -45 -23 1 -14 2 -14 14 2
14 18 26 23 26 10 0 -5 -12 -16 -26 -26 -13 -10 -24 -15 -23 -10 6 35 -41 36
-65 2 -12 -18 -46 -18 -46 0 0 4 -7 8 -15 8 -18 0 -29 -28 -15 -37 6 -4 8 -14
4 -24 -5 -13 -9 -14 -14 -5 -8 12 -30 -47 -30 -79 0 -7 -7 -26 -15 -42 -15
-29 -11 -36 18 -31 5 1 6 -3 2 -9 -3 -5 -19 -10 -35 -10 -16 0 -32 -5 -36 -12
-4 -7 -3 -8 5 -4 6 4 21 4 33 0 19 -6 14 -9 -30 -23 -53 -16 -162 -95 -162
-117 0 -6 -16 -28 -35 -49 -19 -21 -32 -42 -29 -47 3 -4 -5 -23 -18 -40 -12
-18 -21 -41 -20 -51 2 -10 -3 -26 -11 -35 -20 -22 -35 -142 -17 -142 7 0 10
-7 6 -15 -3 -8 -2 -15 3 -15 5 0 11 -29 13 -63 3 -35 12 -75 21 -88 9 -13 17
-35 19 -49 2 -14 7 -31 11 -38 5 -7 12 -48 16 -92 5 -44 14 -86 21 -95 6 -8 8
-20 4 -26 -4 -7 -3 -9 4 -5 15 9 25 -10 17 -35 l-7 -21 -22 21 c-12 12 -28 21
-34 21 -20 0 -31 -43 -22 -88 9 -49 20 -67 20 -32 0 21 24 49 42 50 9 0 4 -57
-5 -67 -4 -3 -7 -18 -7 -32 -1 -14 -7 -43 -14 -63 -8 -21 -9 -35 -4 -32 6 4 4
-4 -3 -17 -16 -31 -17 -320 -1 -369 6 -19 14 -50 17 -68 3 -18 10 -41 15 -50
5 -9 19 -44 32 -77 12 -33 28 -70 36 -81 11 -18 10 -22 -2 -27 -8 -3 -38 -41
-67 -84 -29 -43 -66 -94 -83 -113 -17 -20 -44 -52 -60 -72 -26 -34 -34 -37
-95 -43 -85 -8 -161 -45 -202 -96 -36 -46 -67 -64 -129 -74 -25 -4 -70 -17
-100 -28 -30 -11 -111 -37 -180 -58 -152 -45 -406 -134 -518 -182 -163 -70
-219 -144 -310 -408 -22 -63 -42 -143 -46 -178 -4 -36 -16 -82 -27 -104 l-21
-39 22 -50 22 -51 -51 -44 -51 -45 0 -179 0 -179 1605 0 c883 0 1605 3 1605 6
0 22 -429 851 -509 984 -146 243 -318 463 -537 690 -186 192 -256 283 -238
312 3 5 15 -4 25 -21 10 -17 23 -31 27 -31 5 0 17 -16 28 -35 10 -19 22 -35
26 -35 5 0 8 -7 8 -16 0 -8 4 -13 8 -10 4 2 18 -11 31 -30 13 -18 27 -31 32
-28 5 3 9 0 9 -5 0 -6 7 -11 15 -11 7 0 18 -6 22 -13 12 -18 74 -63 114 -81
19 -9 41 -20 49 -25 17 -11 54 -27 155 -65 77 -28 171 -35 194 -14 11 10 13
10 7 1 -9 -16 69 -18 79 -3 4 7 14 5 26 -4 18 -12 28 -11 82 5 34 10 67 17 73
15 7 -3 27 9 45 25 34 30 45 36 34 19 -3 -6 1 -7 9 -4 9 3 16 13 16 21 0 10 6
13 15 9 11 -4 19 3 25 19 6 16 17 25 30 25 12 0 19 4 15 10 -4 6 -15 6 -30 0
-14 -5 -25 -6 -25 -2 0 15 32 52 40 47 5 -3 7 3 6 12 -2 10 7 32 20 48 l24 30
0 -32 c0 -37 -3 -48 -10 -47 -3 0 -15 -9 -27 -21 l-22 -21 24 -2 c19 -1 23 2
18 16 -3 9 -3 14 1 10 21 -19 134 142 143 202 6 47 12 77 18 93 4 10 3 17 -4
17 -6 0 -11 -9 -11 -20 0 -11 -7 -23 -15 -26 -8 -4 -18 -24 -21 -45 -7 -40
-24 -64 -24 -34 0 9 -4 14 -9 11 -5 -3 -7 -15 -4 -26 3 -11 9 -17 14 -14 5 3
9 -4 9 -15 0 -11 -4 -23 -10 -26 -6 -3 -7 1 -4 9 7 19 -12 22 -20 4 -3 -7 -3
1 0 19 3 17 1 33 -3 36 -5 3 -10 -2 -11 -11 -4 -34 -8 -52 -15 -58 -4 -4 -2
-13 5 -21 11 -13 4 -32 -8 -20 -10 9 -10 71 0 85 6 9 4 11 -8 6 -19 -7 -21 6
-3 26 6 8 2 6 -11 -5 -17 -14 -19 -21 -10 -27 10 -6 10 -8 1 -8 -7 0 -13 -7
-13 -16 0 -14 2 -15 17 -3 15 13 15 12 4 -9 -7 -12 -16 -20 -20 -17 -5 2 -11
-5 -14 -16 -3 -12 -10 -18 -16 -14 -6 3 -9 9 -7 13 2 4 -7 8 -20 8 -15 1 -24
-4 -24 -13 0 -8 4 -12 9 -9 5 3 11 -4 14 -15 3 -12 10 -18 16 -14 6 3 11 0 11
-8 0 -15 -66 -87 -80 -87 -12 0 17 55 30 56 23 3 24 5 10 14 -10 6 -11 10 -2
10 6 0 12 5 12 11 0 6 -7 9 -16 7 -8 -2 -14 -7 -14 -12 2 -10 -20 -26 -35 -26
-7 0 -7 3 0 8 28 20 46 84 23 78 -7 -1 -10 -1 -7 1 4 2 5 14 2 26 -5 21 -5 21
9 4 13 -18 14 -17 14 2 0 32 -25 34 -33 4 -6 -25 -7 -25 -14 -8 -6 16 -8 13
-8 -12 -1 -22 -6 -33 -16 -33 -8 0 -15 -5 -15 -11 0 -8 -6 -7 -17 2 -15 13
-16 11 -10 -10 l6 -23 -24 22 c-14 13 -29 19 -36 15 -8 -5 -10 -4 -5 3 4 7 2
12 -4 12 -6 0 -14 -8 -17 -17 -9 -22 -43 -56 -43 -42 0 8 -5 7 -15 -1 -23 -19
-31 -3 -9 21 14 15 15 20 4 17 -8 -2 -21 -14 -28 -28 -10 -21 -12 -22 -11 -5
3 43 -1 47 -22 21 -27 -34 -48 -34 -41 0 3 19 1 25 -7 20 -6 -4 -11 -2 -11 3
0 6 -4 11 -10 11 -5 0 -10 -9 -10 -20 0 -11 -4 -20 -10 -20 -5 0 -6 7 -3 17 4
10 2 14 -4 10 -7 -5 -9 0 -6 13 3 11 1 20 -5 20 -6 0 -14 -16 -18 -35 -7 -40
-7 -40 -38 -20 -15 10 -22 23 -19 33 3 13 -2 18 -16 18 -17 0 -19 -5 -15 -26
4 -19 3 -22 -5 -10 -6 8 -11 23 -11 33 0 26 -20 10 -21 -16 -1 -27 -5 -15 -14
38 l-7 40 -18 -22 -17 -22 -12 25 c-6 14 -8 31 -4 37 4 7 -1 5 -12 -3 -16 -14
-17 -13 -11 8 7 21 -4 28 -36 23 -4 0 -5 6 -2 14 8 20 -15 48 -30 36 -6 -4
-18 -8 -27 -8 -13 0 -15 7 -8 35 6 30 5 33 -12 29 -15 -4 -17 -2 -9 13 7 13 7
21 0 25 -5 3 -11 4 -11 1 -1 -3 -3 -10 -4 -16 -1 -5 -3 -14 -4 -20 0 -5 -7
-10 -15 -10 -8 0 -14 -6 -13 -12 1 -39 -5 -56 -21 -60 -25 -7 -38 16 -47 79
-5 39 -3 60 10 87 13 27 14 40 6 49 -6 8 -7 17 -2 23 11 11 2 66 -10 59 -11
-7 -30 30 -21 41 4 5 -2 2 -12 -6 -15 -11 -18 -12 -12 -2 5 8 3 25 -5 39 -11
20 -11 26 1 34 13 9 13 10 0 6 -8 -2 -16 -13 -18 -25 -2 -12 -8 -22 -14 -22
-6 0 -7 7 -3 18 4 9 10 27 12 39 4 15 10 20 22 16 13 -4 14 -3 1 5 -8 6 -18 8
-23 5 -5 -3 -14 1 -19 8 -8 11 -9 10 -5 -3 3 -9 2 -29 -4 -45 l-9 -28 4 30 c3
17 1 37 -5 45 -7 12 -9 10 -9 -9 0 -20 -2 -22 -15 -11 -13 11 -13 15 -3 21 10
7 10 9 1 9 -7 0 -13 6 -13 14 0 8 -7 16 -15 20 -10 3 -15 -1 -15 -11 0 -28
-13 -5 -14 24 -1 20 -6 27 -17 25 -13 -2 -15 4 -11 24 3 18 1 25 -6 20 -6 -3
-13 -2 -17 4 -10 17 -23 11 -27 -12 -4 -29 -47 -33 -57 -5 -6 16 8 165 23 247
12 63 18 109 21 153 2 27 6 51 9 54 3 4 6 19 6 34 0 15 7 54 15 85 8 31 12 61
9 65 -3 5 0 42 5 82 20 132 24 172 24 245 1 39 4 72 9 72 4 0 8 5 8 11 0 5 -4
8 -9 4 -20 -12 -22 17 -3 38 10 12 32 49 47 82 48 104 216 288 293 321 16 6
33 17 36 23 5 8 13 8 28 0 13 -7 18 -7 14 -1 -3 6 -1 14 5 18 7 4 9 3 6 -3 -4
-6 0 -19 8 -29 13 -16 16 -17 25 -4 8 13 10 13 10 -2 0 -19 40 -21 52 -3 5 6
8 2 9 -10 l0 -20 9 20 c8 19 9 19 9 -1 1 -20 31 -44 31 -25 0 5 17 3 38 -5 45
-16 79 -18 87 -4 5 8 11 7 21 -1 9 -7 14 -8 14 -1 0 7 10 5 28 -3 15 -8 50
-14 77 -14 60 -1 116 -7 170 -18 22 -4 54 -8 72 -8 17 1 29 -3 27 -7 -3 -4 2
-8 10 -8 9 0 16 4 16 10 0 14 58 42 62 30 2 -7 27 -6 73 3 51 9 79 10 105 2
47 -13 62 -24 54 -37 -5 -7 -2 -9 7 -6 8 3 23 -4 34 -15 l20 -20 -20 8 c-11 4
-39 14 -62 22 -49 17 -56 26 -15 18 19 -4 16 -1 -10 9 -24 10 -58 13 -95 10
-60 -5 -74 -10 -57 -22 24 -16 133 -184 180 -279 29 -57 48 -100 43 -97 -5 3
-1 -8 8 -25 16 -27 18 -28 30 -11 7 10 10 25 7 34 -11 27 3 18 25 -18 24 -39
26 -50 7 -43 -9 4 -12 -2 -10 -20 3 -32 14 -43 14 -14 0 35 24 19 30 -20 6
-34 -5 -74 -25 -95 -6 -6 -9 -30 -7 -52 4 -36 6 -40 25 -33 21 8 35 51 17 51
-6 0 -10 -9 -10 -20 0 -31 -15 -24 -17 9 -2 25 1 27 23 23 23 -4 30 5 25 32
-1 5 2 12 6 15 4 3 16 21 25 39 17 32 17 33 -5 42 l-22 9 23 0 c32 1 27 21 -5
22 -19 0 -23 3 -13 7 17 8 20 33 5 45 -6 6 -6 10 2 14 9 3 10 10 3 24 -8 14
-7 19 1 19 8 0 7 6 -3 18 -17 19 -13 42 6 42 22 0 13 31 -11 41 -13 5 -22 13
-19 18 4 5 0 12 -6 14 -7 3 -1 6 14 6 25 1 27 4 26 36 -1 30 -5 35 -25 35 -17
0 -22 -4 -17 -12 4 -7 -4 -4 -17 8 -13 11 -39 27 -56 34 -18 7 -30 17 -27 22
3 5 0 8 -7 7 -20 -3 -69 12 -69 21 0 5 -9 12 -21 15 -11 4 -18 9 -15 12 7 7
66 -17 66 -27 0 -4 19 -3 42 3 l42 10 -34 29 c-19 15 -39 28 -46 28 -6 0 -17
7 -24 15 -15 18 1 20 18 3 7 -7 12 -9 12 -6 0 4 -7 14 -16 22 -14 15 -13 16
13 17 25 0 26 1 8 9 -11 5 -36 10 -55 11 -33 2 -33 2 -6 6 l28 5 -23 16 c-17
12 -43 16 -89 15 l-65 -2 45 10 c25 6 66 8 92 6 26 -2 53 0 60 4 8 6 -1 9 -24
9 -32 0 -39 4 -44 25 -3 14 -10 25 -16 25 -5 0 -7 -4 -4 -9 3 -4 -21 -8 -54
-7 -66 1 -84 16 -20 16 23 0 40 5 40 11 0 6 -9 9 -20 6 -11 -3 -20 -1 -20 3 0
4 -16 8 -35 7 -21 -1 -30 -4 -22 -9 8 -5 7 -8 -5 -8 -10 0 -18 5 -18 10 0 6
-10 10 -22 10 -13 0 -30 5 -38 11 -12 9 -11 10 8 6 12 -3 22 -1 22 4 0 7 -38
12 -66 8 -4 0 -10 3 -13 8 -3 5 -25 15 -49 21 -38 11 -41 15 -32 32 9 16 7 20
-5 20 -10 0 -13 -5 -9 -12 5 -8 -2 -9 -26 -5 -18 4 -36 7 -41 7 -5 0 -9 7 -9
15 0 8 8 15 18 15 14 0 14 2 3 9 -8 5 -19 7 -25 5 -6 -2 -33 -6 -60 -8 l-49
-4 29 19 c16 11 37 18 47 15 9 -2 15 0 11 5 -8 14 -25 10 -74 -15z m-280 -30
c0 -2 -9 -6 -20 -9 -11 -3 -18 -1 -14 4 5 9 34 13 34 5z m270 -36 c-8 -5 -31
-9 -50 -9 -31 1 -32 2 -10 8 14 4 36 8 50 9 20 1 22 0 10 -8z m114 -8 c3 -5
-23 -8 -57 -9 -39 0 -53 3 -37 7 37 10 88 11 94 2z m-629 -51 c-3 -6 -11 -11
-17 -11 -6 0 -6 6 2 15 14 17 26 13 15 -4z m698 12 c-13 -2 -35 -2 -50 0 -16
2 -5 4 22 4 28 0 40 -2 28 -4z m-96 -9 c-3 -3 -12 -4 -19 -1 -8 3 -5 6 6 6 11
1 17 -2 13 -5z m-387 -39 c0 -2 -10 -9 -22 -15 -22 -11 -22 -10 -4 4 21 17 26
19 26 11z m645 -5 c13 -5 -5 -8 -52 -7 -40 1 -67 5 -60 9 16 10 86 9 112 -2z
m-340 -10 c-27 -12 -43 -12 -25 0 8 5 22 9 30 9 10 0 8 -3 -5 -9z m-46 -14
c-2 -2 -15 -9 -29 -15 -24 -11 -24 -11 -6 3 16 13 49 24 35 12z m414 -3 c-7
-2 -19 -2 -25 0 -7 3 -2 5 12 5 14 0 19 -2 13 -5z m-1018 -32 c-6 -21 -25 -29
-25 -11 0 6 5 10 10 10 6 0 10 8 10 17 0 9 3 14 6 10 3 -3 3 -15 -1 -26z m958
22 c-7 -2 -19 -2 -25 0 -7 3 -2 5 12 5 14 0 19 -2 13 -5z m-283 -27 c-30 -12
-74 -33 -97 -45 -24 -12 -43 -19 -43 -16 0 9 162 84 180 84 8 0 -10 -10 -40
-23z m370 14 c0 -5 -19 -9 -42 -9 l-43 2 40 7 c22 4 41 8 43 9 1 0 2 -3 2 -9z
m-243 -11 c-20 -5 -55 -18 -77 -29 -46 -23 -57 -25 -38 -7 18 18 96 45 128 45
18 0 14 -3 -13 -9z m133 -9 c-34 -11 -60 -11 -35 0 11 5 29 8 40 8 16 0 15 -2
-5 -8z m-115 -29 c-12 -10 -65 -24 -65 -16 0 2 15 9 33 14 43 12 42 12 32 2z
m236 -22 c-30 -5 -59 -14 -66 -19 -6 -5 -22 -6 -35 -3 -15 4 -21 3 -16 -5 3
-6 1 -14 -5 -18 -8 -4 -9 -3 -5 4 4 7 2 12 -5 12 -7 0 -9 3 -6 6 10 10 118 32
157 32 26 0 21 -3 -19 -9z m-1081 -9 c0 -5 -5 -10 -11 -10 -5 0 -7 5 -4 10 3
6 8 10 11 10 2 0 4 -4 4 -10z m770 6 c0 -2 -9 -6 -20 -9 -11 -3 -18 -1 -14 4
5 9 34 13 34 5z m70 -11 c0 -2 -10 -9 -22 -15 -22 -11 -22 -10 -4 4 21 17 26
19 26 11z m-130 -9 c0 -2 -8 -10 -17 -17 -16 -13 -17 -12 -4 4 13 16 21 21 21
13z m505 -14 c-3 -3 -11 0 -18 7 -9 10 -8 11 6 5 10 -3 15 -9 12 -12z m-295
-2 c-8 -5 -19 -10 -25 -10 -5 0 -3 5 5 10 8 5 20 10 25 10 6 0 3 -5 -5 -10z
m340 -14 c0 -3 -4 -8 -10 -11 -5 -3 -10 -1 -10 4 0 6 5 11 10 11 6 0 10 -2 10
-4z m-45 -66 c3 -5 1 -10 -4 -10 -6 0 -11 5 -11 10 0 6 2 10 4 10 3 0 8 -4 11
-10z m-1299 -48 c-17 -16 -18 -16 -5 5 7 12 15 20 18 17 3 -2 -3 -12 -13 -22z
m-36 -76 c0 -2 -7 -7 -16 -10 -8 -3 -12 -2 -9 4 6 10 25 14 25 6z m1530 -57
c0 -5 -7 -9 -15 -9 -9 0 -15 9 -15 21 0 18 2 19 15 9 8 -7 15 -16 15 -21z m-2
-99 c12 -14 21 -33 18 -42 -2 -10 0 -21 5 -24 5 -3 9 -22 8 -42 0 -33 -1 -35
-10 -14 -5 13 -6 29 -2 34 3 6 1 8 -4 5 -6 -4 -13 4 -15 18 -3 13 -1 22 3 19
5 -3 9 1 9 10 0 8 -3 16 -7 18 -5 2 -21 19 -38 38 -33 38 -4 20 33 -20z
m-1609 -1338 c0 -14 -2 -13 -9 3 -7 17 -9 16 -10 -10 -2 -19 -4 -23 -7 -12 -6
24 4 50 17 42 5 -3 10 -14 9 -23z m255 -283 c0 -21 5 -39 9 -39 5 0 5 -5 2
-10 -11 -17 -25 0 -24 28 2 33 -3 55 -15 63 -5 4 -5 12 -1 19 12 19 27 -14 29
-61z m-24 -9 c0 -5 -4 -10 -10 -10 -5 0 -10 5 -10 10 0 6 5 10 10 10 6 0 10
-4 10 -10z m111 -53 c-10 -9 -11 -8 -5 6 3 10 9 15 12 12 3 -3 0 -11 -7 -18z
m119 13 c0 -5 -2 -10 -4 -10 -3 0 -8 5 -11 10 -3 6 -1 10 4 10 6 0 11 -4 11
-10z m-136 -36 c3 -8 2 -12 -4 -9 -6 3 -10 10 -10 16 0 14 7 11 14 -7z m8 -39
c2 3 5 -1 5 -8 0 -8 -6 -14 -14 -14 -7 0 -11 3 -8 5 3 3 -3 15 -12 26 -18 21
-18 21 3 3 11 -9 23 -15 26 -12z m806 -107 c-2 -6 -10 -14 -16 -16 -7 -2 -10
2 -6 12 7 18 28 22 22 4z m-112 -25 c-10 -10 -19 5 -10 18 6 11 8 11 12 0 2
-7 1 -15 -2 -18z m11 -45 c-3 -7 -5 -2 -5 12 0 14 2 19 5 13 2 -7 2 -19 0 -25z
m143 -44 c0 -8 -5 -12 -10 -9 -6 4 -8 11 -5 16 9 14 15 11 15 -7z m-97 -22
c-21 -22 -26 -21 -17 2 3 9 12 16 20 16 11 0 10 -4 -3 -18z"/>
<path d="M2565 4341 c-11 -5 -23 -7 -26 -5 -4 2 -9 -3 -12 -11 -8 -19 24 -28
54 -16 13 5 19 10 12 10 -7 1 -10 8 -7 16 7 17 7 17 -21 6z"/>
<path d="M2690 4340 c-8 -5 -10 -10 -5 -10 6 0 17 5 25 10 8 5 11 10 5 10 -5
0 -17 -5 -25 -10z"/>
<path d="M2975 4320 c3 -5 11 -10 16 -10 6 0 7 5 4 10 -3 6 -11 10 -16 10 -6
0 -7 -4 -4 -10z"/>
<path d="M3030 4326 c0 -2 7 -6 15 -10 8 -3 15 -1 15 4 0 6 -7 10 -15 10 -8 0
-15 -2 -15 -4z"/>
<path d="M3008 4270 c9 -11 23 -20 32 -19 10 0 9 3 -5 9 -19 8 -18 9 4 9 31 1
25 6 -16 14 -31 6 -32 6 -15 -13z"/>
<path d="M2970 4270 c0 -6 7 -10 15 -10 8 0 15 2 15 4 0 2 -7 6 -15 10 -8 3
-15 1 -15 -4z"/>
<path d="M3080 4240 c-9 -6 -10 -10 -3 -10 6 0 15 5 18 10 8 12 4 12 -15 0z"/>
<path d="M3120 4222 c0 -5 13 -9 30 -9 16 0 27 4 24 9 -7 11 -54 11 -54 0z"/>
<path d="M3200 4210 c8 -5 20 -10 25 -10 6 0 3 5 -5 10 -8 5 -19 10 -25 10 -5
0 -3 -5 5 -10z"/>
<path d="M3388 4083 c7 -3 16 -2 19 1 4 3 -2 6 -13 5 -11 0 -14 -3 -6 -6z"/>
<path d="M2316 4055 c-3 -8 -1 -15 4 -15 6 0 10 7 10 15 0 8 -2 15 -4 15 -2 0
-6 -7 -10 -15z"/>
<path d="M3370 4060 c0 -9 39 -25 45 -18 2 2 -7 8 -21 15 -13 6 -24 7 -24 3z"/>
<path d="M3410 3990 c10 -19 100 -74 108 -66 2 3 -8 11 -23 18 -25 11 -25 13
-9 25 10 7 12 13 6 13 -19 0 -27 -4 -24 -14 2 -5 -4 -6 -13 -2 -9 3 -19 6 -22
6 -3 0 0 7 7 15 7 8 9 15 4 16 -5 0 -17 2 -26 4 -14 3 -16 0 -8 -15z"/>
<path d="M3470 3920 c0 -6 7 -13 15 -17 24 -9 27 1 5 15 -13 8 -20 8 -20 2z"/>
<path d="M3445 3890 c3 -5 8 -10 11 -10 2 0 4 5 4 10 0 6 -5 10 -11 10 -5 0
-7 -4 -4 -10z"/>
<path d="M3484 3858 c-4 -6 -3 -8 4 -4 5 3 12 2 14 -3 1 -4 14 -11 28 -15 l25
-7 -25 20 c-29 24 -36 25 -46 9z"/>
<path d="M3480 3440 c0 -8 5 -22 10 -30 9 -13 10 -13 10 0 0 8 -5 22 -10 30
-9 13 -10 13 -10 0z"/>
<path d="M2410 3299 c0 -5 -7 -5 -17 -2 -10 4 -14 2 -10 -4 4 -6 1 -13 -5 -15
-7 -3 10 -12 39 -22 51 -17 103 -55 103 -76 0 -5 7 -10 15 -10 8 0 15 -5 15
-11 0 -5 -4 -8 -9 -5 -5 4 -11 1 -13 -5 -3 -9 -9 -9 -25 -1 -33 18 -222 -3
-323 -35 -81 -26 -83 -28 -50 -33 19 -3 52 -1 74 5 26 7 68 7 128 1 74 -7 92
-7 99 5 7 11 11 11 17 1 5 -7 26 -15 46 -19 36 -6 38 -5 31 16 -6 21 -4 22 16
16 21 -7 22 -6 10 9 -12 14 -11 18 5 30 10 8 23 12 28 8 5 -3 7 2 3 11 -5 14
0 17 22 17 22 0 28 4 26 18 -2 9 -4 23 -4 31 -1 8 -8 11 -19 9 -10 -3 -23 0
-29 6 -25 23 -48 41 -53 41 -3 0 -11 4 -17 8 -17 11 -103 15 -103 6z"/>
<path d="M2985 3280 c-3 -5 -1 -10 4 -10 6 0 11 5 11 10 0 6 -2 10 -4 10 -3 0
-8 -4 -11 -10z"/>
<path d="M3459 3260 c-1 -14 -1 -27 -1 -30 -1 -3 2 -17 6 -32 5 -21 3 -28 -9
-28 -11 0 -15 -11 -14 -42 1 -24 3 -35 6 -25 2 9 9 15 14 11 6 -3 7 5 3 20 -4
17 -2 26 6 26 8 0 11 9 8 25 -3 14 -1 25 4 25 12 0 1 50 -13 65 -5 5 -9 0 -10
-15z"/>
<path d="M2995 3260 c-13 -5 -14 -9 -5 -9 8 0 24 4 35 9 13 5 14 9 5 9 -8 0
-24 -4 -35 -9z"/>
<path d="M3490 3260 c0 -5 5 -10 10 -10 6 0 10 5 10 10 0 6 -4 10 -10 10 -5 0
-10 -4 -10 -10z"/>
<path d="M2930 3210 c-8 -5 -18 -6 -22 -4 -4 3 -8 1 -8 -5 0 -5 -3 -18 -6 -28
-5 -15 -4 -15 5 -3 9 12 11 11 11 -7 0 -13 -4 -23 -10 -23 -5 0 -10 -9 -10
-20 0 -12 7 -20 16 -20 10 0 14 -6 11 -15 -10 -25 14 -28 44 -6 22 16 29 18
29 7 0 -7 10 -16 23 -20 35 -9 117 -7 117 3 0 6 13 6 33 1 l32 -9 -35 31 c-43
37 -10 22 44 -21 39 -31 66 -40 66 -21 0 18 -74 59 -135 75 -32 8 -94 15 -137
15 -76 0 -78 1 -78 25 0 13 8 28 17 34 10 5 15 12 13 15 -3 3 -12 1 -20 -4z
m127 -96 c-3 -3 -12 -4 -19 -1 -8 3 -5 6 6 6 11 1 17 -2 13 -5z"/>
<path d="M2270 3009 c34 -10 132 -10 147 -1 7 4 -29 8 -80 8 -53 0 -82 -3 -67
-7z"/>
<path d="M3440 3006 c0 -9 5 -16 10 -16 6 0 10 4 10 9 0 6 -4 13 -10 16 -5 3
-10 -1 -10 -9z"/>
<path d="M2513 2698 c-65 -12 -74 -38 -28 -80 l30 -27 -32 -31 c-18 -18 -33
-27 -33 -21 0 18 -39 12 -61 -10 -22 -22 -40 -19 -21 4 7 8 8 18 4 22 -4 5 -1
5 6 1 7 -4 12 -2 12 7 0 8 9 26 20 39 19 24 19 26 1 42 -9 9 -23 16 -29 16
-12 0 -94 -40 -102 -50 -9 -12 -88 -39 -94 -33 -3 4 -6 1 -6 -5 0 -7 -8 -12
-17 -12 -17 -1 -17 -2 1 -15 18 -13 17 -14 -7 -20 -20 -6 -25 -12 -22 -33 1
-15 -2 -32 -7 -39 -7 -8 -3 -10 11 -6 21 5 70 -31 71 -53 0 -6 9 -19 20 -29
19 -17 20 -17 20 -1 0 9 5 14 10 11 6 -4 22 1 36 10 23 15 27 15 43 1 31 -28
126 -63 184 -68 31 -3 57 -1 57 4 0 4 -11 8 -24 8 -24 0 -36 16 -36 51 0 19
24 27 34 10 3 -5 26 -6 51 -3 27 3 50 0 59 -7 10 -9 16 -9 21 -1 4 6 30 11 58
10 29 -1 76 1 105 4 l52 5 0 -34 0 -35 68 24 c99 36 127 40 142 21 18 -22 57
-19 65 5 4 11 10 18 14 16 12 -8 29 8 32 29 4 30 -11 86 -22 79 -5 -3 -9 2 -9
10 0 9 -4 16 -10 16 -5 0 -10 7 -10 15 0 8 -7 15 -15 15 -8 0 -15 4 -15 9 0 5
-16 26 -35 47 -19 21 -35 34 -35 30 0 -4 -7 0 -16 8 -19 19 -41 21 -46 4 -6
-18 12 -89 29 -113 7 -11 13 -31 14 -45 l1 -25 8 25 c9 24 9 24 7 -5 -2 -26
-6 -31 -42 -37 -22 -4 -70 -7 -107 -7 -55 -1 -68 2 -68 15 0 8 -5 12 -10 9 -6
-4 -17 -2 -24 4 -10 8 -20 6 -39 -9 -26 -21 -72 -26 -96 -11 -9 6 -10 11 -2
15 6 4 11 13 11 19 0 7 -4 6 -10 -3 -8 -13 -10 -12 -10 3 0 9 10 27 22 39 20
20 23 21 26 5 2 -9 8 -17 13 -17 6 0 8 -4 4 -9 -3 -5 -1 -12 5 -16 6 -3 13 1
17 11 6 16 7 16 19 -1 12 -16 14 -16 20 -2 3 9 2 22 -2 29 -6 10 -4 10 9 -1
14 -11 17 -11 17 0 0 9 5 6 12 -6 11 -19 11 -19 19 0 7 19 8 19 8 -2 1 -12 -5
-23 -11 -26 -7 -3 -3 -4 10 -4 12 1 21 6 18 13 -2 6 0 17 5 25 7 11 9 10 9 -6
0 -16 2 -17 9 -6 7 11 12 6 19 -20 6 -20 11 -26 11 -14 0 11 -6 33 -14 48 -8
15 -9 25 -3 21 7 -4 8 -3 4 4 -10 16 -36 15 -36 0 0 -9 -3 -8 -10 2 -5 8 -15
15 -22 15 -16 0 -17 47 -2 52 7 2 18 -3 26 -11 13 -13 19 -12 47 5 23 14 31
26 29 42 -5 39 -65 35 -116 -8 -28 -23 -30 -24 -35 -6 -3 11 -17 22 -36 26
-18 4 -44 13 -59 21 -30 16 -110 16 -189 2z m144 -210 c-3 -7 -5 -2 -5 12 0
14 2 19 5 13 2 -7 2 -19 0 -25z m-154 -128 c7 -26 -7 -34 -33 -20 -19 10 -27
40 -14 53 11 10 41 -11 47 -33z"/>
<path d="M2448 2613 c7 -3 16 -2 19 1 4 3 -2 6 -13 5 -11 0 -14 -3 -6 -6z"/>
<path d="M2890 2490 c0 -5 5 -10 10 -10 6 0 10 5 10 10 0 6 -4 10 -10 10 -5 0
-10 -4 -10 -10z"/>
<path d="M2835 2340 c-3 -5 1 -10 10 -10 9 0 13 5 10 10 -3 6 -8 10 -10 10 -2
0 -7 -4 -10 -10z"/>
<path d="M2770 2331 c0 -6 4 -13 10 -16 6 -3 7 1 4 9 -7 18 -14 21 -14 7z"/>
<path d="M3285 2330 c-3 -5 -2 -10 4 -10 5 0 13 5 16 10 3 6 2 10 -4 10 -5 0
-13 -4 -16 -10z"/>
<path d="M3260 2307 c0 -9 -6 -20 -13 -24 -20 -12 -30 -43 -11 -36 9 3 14 -2
14 -16 0 -28 15 -27 17 1 1 12 10 28 19 37 14 13 15 13 8 1 -15 -27 -14 -43 2
-29 8 6 14 20 14 30 0 10 5 21 10 24 6 3 10 10 10 15 0 13 -40 -1 -40 -14 0
-6 -7 -2 -15 8 -13 17 -15 17 -15 3z"/>
<path d="M3353 2304 c-4 -10 -19 -37 -35 -58 -29 -40 -34 -56 -19 -56 5 0 12
11 15 25 4 14 11 23 16 20 6 -3 10 3 10 14 0 12 4 21 9 21 9 0 23 41 16 48 -3
3 -8 -4 -12 -14z"/>
<path d="M3197 2233 c-4 -3 -7 -11 -7 -17 0 -6 5 -5 12 2 6 6 9 14 7 17 -3 3
-9 2 -12 -2z"/>
<path d="M3415 2199 c-4 -6 -5 -12 -2 -15 2 -3 7 2 10 11 7 17 1 20 -8 4z"/>
<path d="M3192 2158 c-1 -18 -8 -28 -18 -28 -9 0 -12 5 -8 13 4 6 4 9 -1 5
-11 -10 -17 -68 -10 -88 5 -13 7 -13 16 0 8 12 10 10 6 -7 -3 -15 0 -23 9 -23
10 0 11 -6 4 -26 -6 -14 -10 -31 -10 -37 1 -16 39 34 40 51 0 6 5 12 10 12 6
0 10 7 10 15 0 8 4 15 8 15 4 0 8 9 9 20 1 11 -2 20 -7 20 -5 0 -7 7 -4 15 4
8 1 15 -6 15 -6 0 -9 4 -6 8 2 4 1 14 -4 22 -6 9 -12 1 -19 -28 -7 -23 -16
-44 -22 -48 -7 -4 -7 1 1 15 6 12 9 36 7 54 -3 29 -4 30 -5 5z"/>
<path d="M2160 2136 c-6 -16 -9 -34 -6 -40 3 -7 5 -6 5 2 1 6 7 12 15 12 22 0
41 29 28 42 -9 9 -12 8 -12 -2 0 -13 -2 -13 -10 0 -7 11 -11 9 -20 -14z"/>
<path d="M3308 2149 c-10 -5 -17 -20 -17 -32 1 -20 2 -20 6 -2 3 11 13 25 22
32 19 15 13 16 -11 2z"/>
<path d="M3366 2129 c-11 -10 -15 -19 -8 -19 10 0 42 27 42 36 0 9 -16 2 -34
-17z"/>
<path d="M3318 2043 c-20 -40 -11 -60 13 -28 14 17 18 29 11 41 -8 14 -11 12
-24 -13z"/>
<path d="M3255 2030 c-16 -17 -16 -20 -3 -15 9 4 19 13 22 21 7 19 2 18 -19
-6z"/>
<path d="M2295 2020 c-3 -5 -1 -10 4 -10 6 0 11 5 11 10 0 6 -2 10 -4 10 -3 0
-8 -4 -11 -10z"/>
<path d="M2570 1836 c0 -14 4 -27 8 -30 5 -3 6 8 4 25 -5 35 -12 38 -12 5z"/>
<path d="M2720 1849 c0 -5 5 -7 10 -4 6 3 10 8 10 11 0 2 -4 4 -10 4 -5 0 -10
-5 -10 -11z"/>
<path d="M3089 1518 c-2 -45 3 -80 16 -113 8 -18 12 -35 9 -37 -2 -3 2 -34 10
-69 8 -35 16 -92 18 -126 2 -47 6 -59 15 -51 22 18 14 151 -12 229 -13 39 -27
97 -31 129 -6 58 -23 83 -25 38z"/>
<path d="M3578 1390 c15 -18 16 -55 0 -83 -6 -12 -11 -39 -9 -59 2 -43 -16
-84 -62 -136 -44 -50 -61 -89 -43 -99 19 -11 68 -95 102 -173 15 -36 35 -76
44 -90 26 -38 45 -103 32 -108 -6 -2 10 -51 38 -120 47 -113 127 -350 150
-442 6 -25 13 -53 16 -62 5 -16 25 -18 231 -18 211 0 225 1 218 18 -16 37 -55
175 -55 196 0 51 -109 555 -130 601 -5 11 -23 56 -41 100 -48 123 -65 159
-105 211 -45 59 -55 68 -117 98 -26 14 -78 47 -115 74 -72 53 -175 114 -154
92z"/>
</g>
</svg>
