<?xml version="1.0" standalone="no"?>
<!DOCTYPE svg PUBLIC "-//W3C//DTD SVG 20010904//EN"
 "http://www.w3.org/TR/2001/REC-SVG-20010904/DTD/svg10.dtd">
<svg version="1.0" xmlns="http://www.w3.org/2000/svg"
 width="512.000000pt" height="512.000000pt" viewBox="0 0 512.000000 512.000000"
 preserveAspectRatio="xMidYMid meet">
<metadata>
Created by potrace 1.14, written by Peter Selinger 2001-2017
</metadata>
<g transform="translate(0.000000,512.000000) scale(0.100000,-0.100000)"
fill="#000000" stroke="none">
<path d="M1321 4826 c2 -162 7 -298 12 -302 4 -4 10 -4 14 0 5 4 10 140 12
302 l3 294 -22 0 -22 0 3 -294z"/>
<path d="M2520 5114 c0 -4 32 -72 71 -151 96 -193 103 -183 23 32 -19 50 -34
98 -34 108 0 12 -8 17 -30 17 -16 0 -30 -3 -30 -6z"/>
<path d="M2405 4510 c-33 -5 -80 -14 -105 -20 -25 -6 -68 -16 -96 -21 -135
-24 -312 -145 -365 -249 -15 -30 -26 -57 -24 -60 2 -3 6 -28 9 -57 5 -44 3
-51 -9 -47 -9 4 -15 0 -15 -9 0 -20 -30 -29 -92 -29 -26 0 -48 -4 -48 -9 0 -5
-12 -9 -27 -9 -31 0 -71 -19 -43 -20 27 -1 -21 -30 -49 -30 -14 0 -37 -9 -51
-20 -14 -11 -30 -20 -36 -20 -18 0 -123 -110 -126 -133 -2 -12 0 -32 6 -44 7
-17 5 -28 -6 -40 -21 -24 -31 -60 -19 -67 5 -4 12 7 16 24 4 16 11 30 16 30 6
0 8 4 5 9 -3 5 1 12 10 15 9 4 14 9 11 13 -4 3 3 17 13 31 11 13 20 31 20 38
0 8 5 14 10 14 16 0 12 -11 -36 -95 -37 -65 -46 -90 -47 -130 0 -27 -5 -53 -9
-56 -28 -18 -37 -196 -12 -234 8 -13 21 -22 28 -19 17 6 35 -60 29 -103 -3
-17 4 -48 15 -74 29 -65 52 -177 53 -258 1 -71 14 -95 24 -43 3 15 11 50 17
77 6 28 13 61 14 75 2 14 8 56 13 94 5 38 7 82 4 97 -3 16 0 35 6 43 15 18 17
219 2 224 -17 6 -13 42 4 42 17 0 20 21 4 37 -11 11 17 83 33 83 4 0 8 7 8 15
0 8 4 23 9 33 5 9 31 60 56 112 51 103 67 124 184 244 71 73 129 113 158 107
7 -1 26 5 43 14 19 10 30 12 30 4 0 -7 13 -9 39 -4 22 4 61 1 92 -8 30 -7 72
-12 94 -10 63 5 88 4 95 -6 3 -5 24 -12 47 -14 23 -3 46 -7 50 -10 5 -3 35 -8
68 -12 33 -3 64 -10 71 -16 6 -5 43 -10 83 -12 39 -2 76 -8 83 -15 7 -7 25
-12 42 -12 54 0 155 -22 167 -36 8 -10 8 -14 0 -14 -18 0 -13 -50 7 -57 9 -4
21 -12 25 -20 4 -7 16 -13 25 -14 10 -1 7 -4 -8 -9 -24 -7 -23 -7 12 -15 29
-5 43 -3 65 13 15 10 33 17 40 15 6 -2 14 1 18 6 3 6 11 11 18 11 6 0 2 -7 -9
-15 -18 -14 -18 -14 11 -15 39 0 49 -9 53 -44 4 -35 32 -62 72 -71 28 -6 105
-72 105 -90 0 -5 10 -28 21 -50 12 -22 25 -60 28 -85 4 -25 11 -56 16 -70 5
-14 11 -110 14 -215 9 -304 25 -545 40 -615 26 -123 4 -425 -37 -505 -6 -11
-14 -33 -18 -50 -5 -24 -7 -25 -8 -7 -1 29 -11 28 -44 -8 -16 -16 -43 -32 -63
-36 -27 -5 -39 -14 -52 -40 -9 -21 -18 -30 -23 -23 -4 7 -10 3 -14 -12 -4 -13
-27 -42 -51 -65 -24 -24 -46 -54 -49 -67 -4 -14 -21 -33 -41 -43 -29 -16 -32
-21 -20 -30 13 -9 9 -13 -19 -27 -27 -13 -34 -23 -37 -49 -2 -20 -8 -32 -15
-30 -7 1 -13 -7 -13 -18 0 -23 -6 -25 -25 -7 -50 44 -65 48 -65 16 0 -11 -4
-18 -9 -15 -5 4 -17 -15 -27 -41 -10 -27 -22 -53 -27 -60 -5 -7 -6 -17 -2 -23
3 -5 1 -10 -5 -10 -8 0 -9 -10 -5 -29 4 -20 2 -30 -9 -34 -8 -3 -17 1 -20 9
-8 21 -26 17 -26 -6 0 -11 -1 -20 -2 -21 -2 0 -44 -4 -95 -7 -87 -7 -92 -6
-90 13 1 12 -5 21 -17 23 -14 3 -17 0 -13 -12 5 -12 -6 -26 -39 -49 -31 -22
-40 -33 -30 -37 12 -4 12 -8 1 -23 -15 -21 -55 -15 -55 9 0 20 -14 17 -36 -8
-19 -21 -19 -21 3 -16 16 4 20 2 16 -9 -6 -14 -28 -14 -65 2 -13 5 -16 2 -11
-17 3 -13 1 -18 -4 -12 -4 6 -16 13 -25 17 -10 3 -18 13 -18 21 0 7 -8 13 -17
12 -10 0 -18 4 -18 11 0 16 -6 20 -47 27 -36 7 -37 6 -33 -24 4 -29 3 -30 -40
-30 -24 0 -47 5 -50 10 -3 6 -13 10 -22 10 -9 0 -24 10 -34 21 -13 16 -22 19
-31 12 -7 -6 -26 -13 -43 -17 -28 -7 -29 -7 -10 8 l20 15 -20 15 c-11 8 -28
16 -37 16 -10 0 -18 4 -18 10 0 5 -6 7 -13 4 -20 -7 -43 24 -29 38 10 10 7 21
-20 68 -4 8 -13 27 -19 42 -13 33 -29 28 -29 -8 0 -14 -4 -22 -10 -19 -15 10
-12 -31 4 -44 15 -12 10 -55 -5 -45 -5 3 -7 9 -5 13 3 4 1 13 -4 21 -6 10 -10
3 -15 -23 -4 -20 -11 -35 -15 -32 -8 5 -31 98 -35 140 -1 11 -9 21 -19 23 -14
3 -16 11 -10 48 3 24 3 55 0 70 -6 22 -11 25 -34 19 -37 -9 -49 -22 -34 -37
19 -19 14 -28 -16 -28 -26 0 -27 2 -24 45 5 60 -3 82 -24 64 -13 -11 -15 -7
-13 32 2 24 -1 59 -5 77 -6 24 -4 32 6 32 7 0 19 9 26 20 10 16 10 20 -1 20
-11 0 -47 68 -47 90 0 5 -9 14 -20 20 -11 6 -20 19 -20 30 0 10 -4 22 -10 25
-5 3 -10 1 -10 -5 0 -6 -5 -8 -10 -5 -6 4 -8 16 -4 27 4 14 2 18 -5 14 -7 -5
-11 1 -11 14 0 15 -5 20 -14 17 -10 -4 -15 7 -20 39 -3 24 -12 57 -20 73 -8
15 -16 47 -17 70 -2 22 -7 41 -12 41 -5 0 -7 -6 -4 -12 2 -7 -2 -24 -9 -38
-15 -31 -9 -151 9 -162 9 -6 9 -8 -2 -8 -11 0 -12 -13 -7 -61 4 -33 12 -72 17
-86 5 -14 18 -69 29 -122 36 -174 42 -196 65 -221 29 -33 57 -104 44 -117 -5
-5 -21 -49 -35 -99 -42 -146 -65 -203 -85 -209 -10 -4 -18 -11 -16 -18 1 -6
-7 -12 -18 -14 -67 -12 -103 -26 -98 -39 3 -8 -1 -14 -9 -14 -8 0 -30 -12 -49
-26 l-34 -26 45 5 c25 3 62 9 83 13 36 6 39 5 35 -16 -2 -14 -11 -24 -23 -26
-28 -4 -42 -28 -56 -93 -6 -31 -17 -64 -24 -74 -12 -18 -14 -17 -27 10 -9 18
-23 30 -42 33 -23 4 -32 12 -38 38 -5 18 -15 35 -23 39 -22 8 -18 31 5 38 22
7 70 54 70 68 0 13 -78 -2 -125 -23 -89 -40 -152 -60 -191 -60 -22 0 -43 -3
-46 -6 -14 -13 7 -43 62 -88 70 -58 91 -102 66 -138 -9 -12 -16 -33 -16 -45 0
-34 -27 -28 -46 9 -9 18 -28 46 -41 62 -15 18 -20 32 -14 40 20 25 16 52 -16
95 -25 34 -30 47 -22 57 16 19 5 17 -40 -6 -57 -28 -101 -69 -101 -92 0 -17
-4 -19 -26 -14 l-26 7 18 -31 c12 -20 31 -34 54 -40 20 -5 47 -21 60 -35 13
-14 30 -25 37 -25 12 0 33 -38 33 -61 0 -5 -13 0 -30 12 -22 17 -32 20 -43 11
-11 -9 -17 -4 -30 23 -10 22 -26 37 -42 41 -37 9 -40 0 -16 -39 36 -59 20 -83
-29 -41 -8 7 -19 13 -25 13 -8 -1 -19 13 -32 39 0 2 -28 -2 -61 -8 -57 -12
-63 -11 -88 9 -31 24 -44 16 -44 -30 0 -36 -10 -42 -29 -18 -12 16 -31 21 -85
24 -38 2 -72 8 -75 14 -10 15 -30 -2 -28 -24 2 -15 -3 -19 -18 -16 -11 3 -38
5 -60 5 -34 1 -40 -2 -43 -21 -3 -18 3 -23 35 -28 108 -16 138 -28 175 -69 20
-23 37 -51 38 -62 0 -21 14 -55 50 -124 10 -19 17 -36 15 -38 -8 -9 -44 25
-68 62 -19 31 -33 42 -54 44 -15 1 -50 16 -76 32 -27 17 -53 30 -58 30 -17 0
-9 -27 16 -50 14 -13 25 -27 25 -32 0 -16 -47 -8 -65 12 -10 11 -22 20 -27 20
-4 0 -8 -110 -8 -245 l0 -245 2456 0 2456 0 -20 31 c-34 54 -151 177 -220 233
-37 29 -119 84 -182 121 -124 74 -138 84 -276 191 -94 73 -222 145 -296 168
-72 22 -328 149 -333 166 -2 8 0 56 4 105 15 150 -6 310 -55 434 -31 80 -37
88 -91 124 -43 28 -51 41 -33 52 6 4 8 11 5 16 -4 5 -2 9 3 9 5 0 28 55 50
123 39 118 45 144 57 216 3 18 12 45 19 60 13 24 19 169 15 334 -1 54 3 62 26
53 11 -4 15 -18 14 -56 -1 -28 0 -52 3 -55 3 -3 13 22 22 55 17 61 20 220 4
220 -13 0 -9 34 8 58 13 19 25 58 48 155 4 15 12 27 19 25 7 -1 23 2 36 6 21
7 23 13 18 53 -2 24 -1 57 4 71 5 15 11 40 14 55 5 25 8 27 22 15 14 -12 15
-8 9 37 -4 28 -9 63 -12 79 -6 27 -4 28 20 24 23 -5 25 -2 21 21 -2 14 -7 36
-10 49 -5 13 -3 22 4 22 14 0 14 33 -1 82 -9 32 -9 44 1 60 8 13 13 50 12 92
-1 61 -5 75 -29 106 -19 23 -29 48 -30 72 -1 20 -10 51 -22 70 -11 18 -23 40
-27 48 -9 21 -91 120 -126 153 -28 26 -39 31 -62 28 -9 0 -55 61 -55 75 0 3
20 4 45 2 45 -3 62 9 25 19 -11 3 -20 10 -20 15 0 5 -4 6 -10 3 -5 -3 -10 1
-10 10 0 8 -8 18 -17 22 -33 11 -44 25 -33 38 11 13 -14 27 -73 40 -16 3 -38
15 -50 25 -11 11 -29 20 -39 20 -10 0 -18 4 -18 9 0 5 -13 12 -30 16 -16 4
-32 10 -35 15 -5 8 -171 90 -182 90 -14 0 -123 54 -123 61 0 4 -10 11 -22 15
-26 8 -32 10 -102 18 -27 3 -58 13 -68 23 -16 14 -41 18 -141 19 -67 1 -149
-2 -182 -6z m1072 -397 c3 -7 -3 -9 -16 -6 -12 3 -21 10 -21 15 0 13 32 6 37
-9z m-1907 -183 c0 -5 -5 -10 -11 -10 -5 0 -7 5 -4 10 3 6 8 10 11 10 2 0 4
-4 4 -10z m-150 -554 c-7 -9 -16 -16 -20 -16 -15 0 -20 31 -7 45 10 11 14 11
26 0 12 -12 12 -17 1 -29z m0 -52 c0 -8 -4 -12 -10 -9 -5 3 -10 10 -10 16 0 5
5 9 10 9 6 0 10 -7 10 -16z m2187 -876 c-3 -7 -5 -2 -5 12 0 14 2 19 5 13 2
-7 2 -19 0 -25z m-2112 -648 c3 -5 1 -10 -4 -10 -6 0 -11 5 -11 10 0 6 2 10 4
10 3 0 8 -4 11 -10z m6 -20 c18 0 29 -28 28 -70 l0 -25 -15 29 c-13 22 -18 26
-25 15 -6 -11 -9 -8 -9 9 0 12 -4 22 -10 22 -5 0 -10 10 -10 22 0 17 3 19 12
10 7 -7 20 -12 29 -12z m1846 -125 c-7 -13 -14 -20 -15 -14 -2 5 2 16 8 24 18
21 20 18 7 -10z m-1787 -1 c0 -17 -22 -14 -28 4 -2 7 3 12 12 12 9 0 16 -7 16
-16z m1530 -34 c0 -5 -4 -10 -10 -10 -5 0 -10 5 -10 10 0 6 5 10 10 10 6 0 10
-4 10 -10z m-96 -76 c4 -9 4 -19 2 -21 -8 -8 -26 8 -26 23 0 19 16 18 24 -2z
m382 -30 c-4 -9 -9 -15 -11 -12 -3 3 -3 13 1 22 4 9 9 15 11 12 3 -3 3 -13 -1
-22z m-29 -56 c-3 -8 -6 -5 -6 6 -1 11 2 17 5 13 3 -3 4 -12 1 -19z m140 -10
c-3 -8 -6 -5 -6 6 -1 11 2 17 5 13 3 -3 4 -12 1 -19z m-722 -138 c-3 -5 -10
-10 -16 -10 -5 0 -9 5 -9 10 0 6 7 10 16 10 8 0 12 -4 9 -10z m-35 -68 c0 -15
-2 -15 -10 -2 -13 20 -13 33 0 25 6 -3 10 -14 10 -23z m819 -121 c10 -6 10
-13 2 -28 -5 -11 -8 -23 -4 -26 3 -4 -1 -9 -10 -13 -9 -3 -13 -12 -10 -20 3
-7 -2 -17 -11 -20 -20 -8 -21 -24 -1 -24 8 0 15 -4 15 -9 0 -15 -28 -33 -46
-29 -23 4 -30 28 -9 28 9 0 13 5 10 10 -4 6 -3 16 2 23 5 7 10 26 11 42 1 17
7 32 12 33 6 2 10 12 10 23 0 21 8 23 29 10z m-1259 -48 c0 -7 -7 -13 -16 -13
-8 0 -13 4 -9 9 3 5 1 12 -5 16 -5 3 -10 13 -10 22 0 14 3 14 20 -2 11 -10 20
-24 20 -32z m15 27 c3 -5 2 -10 -4 -10 -5 0 -13 5 -16 10 -3 6 -2 10 4 10 5 0
13 -4 16 -10z m-1302 -182 c-9 -37 -23 -49 -44 -38 -22 12 -15 38 15 50 32 13
35 12 29 -12z m2487 -8 c0 -5 -11 -12 -25 -16 -14 -3 -25 -9 -25 -13 0 -3 -18
-14 -39 -25 -30 -14 -43 -16 -59 -7 -25 13 -35 14 -28 2 3 -5 -11 -11 -32 -15
-51 -8 -117 -8 -108 1 9 10 91 32 141 38 22 3 55 10 72 16 18 6 37 8 43 4 5
-3 10 -2 10 4 0 6 7 7 17 4 11 -4 14 -3 9 5 -4 7 -1 12 8 12 9 0 16 -4 16 -10z
m100 -56 c0 -20 -31 -86 -37 -80 -3 3 1 22 8 43 7 21 12 41 11 46 -1 4 3 7 8
7 6 0 10 -7 10 -16z m66 -41 c-8 -8 -56 25 -56 38 0 6 14 1 31 -11 16 -12 28
-25 25 -27z m-3429 -118 c-5 -10 4 -16 31 -21 20 -4 41 -9 46 -12 5 -3 57 -4
115 -3 150 3 174 2 185 -9 6 -6 18 -10 28 -10 10 0 18 -5 18 -10 0 -18 45 -80
58 -80 6 0 12 5 12 10 0 6 7 10 15 10 22 0 18 9 -17 41 l-33 29 25 0 c126 3
170 6 176 12 12 12 34 -12 34 -37 0 -12 9 -44 21 -70 23 -52 21 -69 -5 -30 -9
14 -22 25 -29 25 -8 0 -7 -4 3 -10 11 -7 11 -10 2 -10 -7 0 -10 -5 -7 -10 8
-13 -19 -40 -39 -40 -9 0 -16 5 -16 11 0 8 -5 8 -15 -1 -8 -7 -29 -10 -45 -8
-39 6 -49 -9 -16 -22 35 -13 33 -19 -6 -14 -83 10 -98 16 -119 50 -20 33 -55
64 -71 64 -8 0 -6 -29 3 -45 10 -16 9 -75 -1 -75 -5 0 -20 5 -34 11 -29 14
-25 29 7 29 18 0 16 4 -13 25 -19 14 -41 38 -48 53 -16 31 -40 52 -59 52 -15
0 -2 -28 31 -67 19 -23 15 -43 -10 -43 -8 0 -14 -4 -14 -10 0 -5 6 -10 13 -10
8 0 24 -11 37 -25 27 -28 12 -33 -26 -9 -32 22 -43 10 -17 -19 36 -39 37 -89
1 -54 -7 8 -23 19 -36 26 -12 6 -22 17 -22 22 0 6 -12 25 -27 43 -14 17 -36
54 -49 81 -21 47 -77 115 -94 115 -9 0 -19 47 -12 55 11 11 24 4 19 -10z
m3483 -70 c0 -3 -10 -19 -22 -35 -27 -37 -55 -40 -55 -5 0 21 2 23 20 14 17
-10 19 -9 14 10 -4 17 -1 21 19 21 13 0 24 -2 24 -5z m307 -19 c4 -3 26 -6 50
-6 46 0 164 -42 184 -66 9 -11 -2 -10 -40 6 -29 11 -56 18 -59 16 -4 -2 -25 5
-47 15 -33 16 -44 18 -68 8 -23 -10 -39 -9 -87 7 -32 10 -57 21 -54 25 5 8
113 4 121 -5z m-152 -6 c4 -6 -7 -10 -25 -10 -18 0 -29 4 -25 10 3 6 15 10 25
10 10 0 22 -4 25 -10z m-227 -66 c-3 -18 -34 -42 -42 -33 -3 3 -3 15 1 27 6
26 46 32 41 6z m-3538 -104 c0 -5 -6 -10 -14 -10 -8 0 -18 5 -21 10 -3 6 3 10
14 10 12 0 21 -4 21 -10z m258 -391 c2 -11 -6 -18 -25 -22 -33 -6 -43 -2 -43
21 0 23 63 24 68 1z"/>
<path d="M5032 4288 c-13 -13 -16 -48 -4 -48 13 0 30 36 23 48 -5 9 -10 9 -19
0z"/>
<path d="M3610 4040 c8 -5 22 -9 30 -9 10 0 8 3 -5 9 -27 12 -43 12 -25 0z"/>
<path d="M4978 3450 c-15 -17 -37 -31 -48 -33 -21 -3 -47 -24 -39 -30 2 -3 32
-7 67 -10 60 -7 63 -6 72 19 6 14 10 39 10 55 0 39 -26 38 -62 -1z"/>
<path d="M1875 2997 c-57 -19 -125 -56 -125 -67 0 -13 36 -13 61 1 15 8 37 4
97 -17 42 -15 90 -28 106 -30 16 -2 34 -8 40 -13 16 -12 166 9 166 24 0 6 -9
20 -20 30 -11 10 -20 23 -20 29 0 7 -14 20 -32 31 -41 24 -213 32 -273 12z
m45 -31 c0 -2 -3 -11 -6 -20 -5 -12 -10 -13 -25 -5 -27 14 -24 29 6 29 14 0
25 -2 25 -4z"/>
<path d="M2615 2953 c-11 -8 -19 -17 -19 -21 1 -4 4 -22 8 -40 4 -23 2 -31 -6
-26 -7 4 -8 3 -4 -5 4 -6 9 -25 11 -42 2 -16 13 -42 25 -56 11 -15 16 -29 11
-32 -5 -3 2 -14 14 -24 23 -16 24 -16 38 3 12 17 19 19 41 11 23 -9 26 -8 26
10 0 19 1 19 16 5 17 -18 64 -22 64 -6 0 14 47 12 61 -3 7 -7 28 -11 52 -8 27
2 35 6 26 12 -8 5 -22 9 -32 9 -22 0 -87 50 -87 68 0 6 6 12 14 12 8 0 17 -6
20 -12 3 -9 8 -8 16 5 7 11 19 15 33 13 62 -13 108 -16 103 -7 -7 11 59 3 86
-10 9 -5 24 -9 33 -9 24 0 115 -61 115 -77 0 -7 9 -13 21 -13 l20 0 -20 29
c-12 16 -21 34 -21 40 0 6 -6 11 -13 11 -7 0 -24 12 -37 28 -37 40 -144 108
-201 127 -36 12 -70 15 -131 11 -117 -7 -178 -16 -178 -28 0 -5 -5 -6 -12 -2
-7 5 -25 7 -41 6 -22 -2 -28 1 -24 12 9 22 -5 26 -28 9z m119 -118 c-7 -17
-20 -20 -28 -6 -7 10 3 21 20 21 8 0 11 -6 8 -15z m81 -15 c4 -7 -3 -8 -22 -4
-38 9 -42 14 -10 14 14 0 29 -5 32 -10z"/>
<path d="M1386 2715 c-8 -23 -8 -55 2 -55 4 0 16 12 26 27 11 14 14 23 8 19
-6 -3 -15 1 -20 10 -8 15 -10 15 -16 -1z"/>
<path d="M2725 2641 c-3 -6 -2 -11 4 -11 5 0 13 -9 16 -20 8 -24 38 -27 33 -4
-4 23 -44 48 -53 35z"/>
<path d="M2620 2540 c0 -16 -1 -33 -1 -37 -2 -11 84 -53 98 -48 19 6 73 -66
73 -97 0 -15 -9 -39 -21 -52 -21 -24 -80 -43 -99 -31 -11 7 12 35 29 35 14 0
14 17 0 26 -18 11 -85 8 -116 -5 -51 -21 -67 -71 -23 -71 10 0 17 -6 16 -15
-3 -21 -16 -31 -16 -12 0 10 -4 17 -10 17 -5 0 -7 -6 -5 -12 3 -7 -8 -21 -25
-30 -38 -22 -47 -58 -25 -104 19 -41 40 -50 127 -60 78 -8 84 -8 130 0 27 5
44 3 60 -8 12 -9 35 -16 49 -16 34 0 59 -9 59 -21 0 -5 -34 -9 -75 -9 -97 0
-141 -20 -142 -67 -1 -17 -4 -36 -8 -42 -11 -19 -54 -12 -66 11 l-12 22 -13
-27 c-18 -33 -53 -45 -69 -23 -11 14 -14 14 -25 1 -6 -8 -27 -17 -46 -21 -19
-3 -31 -10 -28 -15 7 -12 61 -11 69 1 4 6 15 6 30 0 14 -5 25 -7 25 -4 0 4 11
-1 25 -10 13 -9 31 -16 40 -16 8 0 15 -7 15 -15 0 -19 26 -20 37 -2 4 8 51 33
103 57 52 23 99 47 105 51 5 5 19 9 31 9 13 0 24 8 27 18 2 11 14 21 26 25 14
3 19 1 14 -6 -14 -22 -13 -42 4 -79 18 -43 19 -43 38 -24 51 50 76 146 52 193
-20 39 -97 115 -111 110 -6 -3 -19 0 -28 5 -12 5 -18 5 -18 -2 0 -15 -30 -12
-36 4 -4 10 -16 12 -37 9 -18 -3 -28 -1 -24 3 4 5 -7 15 -25 24 -41 19 -49 58
-19 96 29 37 45 92 32 108 -6 7 -8 16 -4 19 3 4 2 7 -4 7 -6 0 -14 11 -17 24
-9 37 -112 136 -141 136 -21 0 -25 -5 -25 -30z"/>
<path d="M1288 2393 c-2 -93 0 -172 5 -178 4 -5 7 10 7 32 0 23 5 45 10 48 11
7 13 147 4 219 -13 91 -23 43 -26 -121z"/>
<path d="M4722 2368 c3 -7 12 -14 21 -16 12 -2 15 1 11 12 -7 19 -38 22 -32 4z"/>
<path d="M2186 2352 c-10 -16 19 -32 72 -39 51 -6 73 6 48 26 -19 16 -112 26
-120 13z"/>
<path d="M4240 2232 c0 -5 -11 -14 -24 -21 -49 -26 -66 -130 -26 -151 36 -19
45 -4 45 72 0 48 4 73 13 76 14 4 16 32 2 32 -5 0 -10 -4 -10 -8z"/>
<path d="M2186 2195 c-20 -13 -56 -27 -82 -30 -25 -3 -54 -10 -65 -15 -10 -6
-22 -9 -26 -8 -17 4 -88 -16 -95 -26 -5 -7 -8 -4 -8 7 0 9 -7 17 -15 17 -8 0
-24 5 -35 12 -18 11 -18 14 -3 30 10 11 12 18 5 18 -7 0 -12 -4 -12 -10 0 -5
-10 -10 -22 -10 -13 0 -38 -16 -57 -35 -33 -33 -34 -36 -28 -95 3 -38 16 -82
33 -116 26 -51 29 -54 64 -54 42 0 49 14 45 85 -1 30 2 35 21 35 13 0 36 -16
58 -40 20 -22 42 -40 49 -40 7 0 29 -12 50 -26 21 -14 45 -23 54 -20 8 3 20 3
26 -1 13 -8 25 -11 81 -20 28 -4 37 -3 32 5 -4 7 -18 12 -31 12 -13 0 -31 7
-40 16 -9 9 -25 14 -35 11 -28 -7 -58 21 -74 67 -12 36 -18 40 -81 61 -37 13
-74 30 -83 39 -15 15 -13 16 20 16 48 0 68 8 69 29 0 10 4 8 10 -8 8 -20 14
-23 44 -18 21 4 35 1 38 -6 3 -8 10 -6 24 6 20 17 21 17 25 -1 4 -16 14 -19
47 -17 23 1 47 7 53 13 8 8 17 8 30 1 11 -6 31 -8 45 -4 30 7 73 48 73 70 0
20 -46 60 -73 62 -12 0 -38 4 -58 7 -29 4 -45 0 -73 -19z"/>
<path d="M1290 2150 c0 -5 5 -10 11 -10 5 0 7 5 4 10 -3 6 -8 10 -11 10 -2 0
-4 -4 -4 -10z"/>
<path d="M1287 2091 c-6 -23 3 -72 12 -67 11 7 13 74 2 80 -5 3 -11 -3 -14
-13z"/>
<path d="M5085 2100 c-3 -5 -4 -10 -1 -10 2 0 11 -3 20 -6 11 -4 16 -1 16 10
0 18 -25 22 -35 6z"/>
<path d="M4343 1964 c-13 -35 18 -40 261 -42 200 -2 236 0 236 12 0 8 -5 18
-10 21 -6 3 -112 8 -236 11 -124 2 -230 7 -235 10 -5 3 -12 -2 -16 -12z"/>
<path d="M2610 1945 c0 -8 2 -15 4 -15 2 0 6 7 10 15 3 8 1 15 -4 15 -6 0 -10
-7 -10 -15z"/>
<path d="M1602 1941 c-16 -10 -15 -18 4 -46 17 -24 18 -92 2 -98 -9 -4 -10 -8
-2 -14 6 -4 21 -30 34 -57 13 -28 25 -45 27 -39 3 7 11 9 19 6 8 -3 14 0 14 6
0 6 -3 11 -8 11 -4 0 -8 17 -10 38 -3 55 -16 111 -37 160 -19 44 -22 47 -43
33z"/>
<path d="M2358 1833 c7 -3 16 -2 19 1 4 3 -2 6 -13 5 -11 0 -14 -3 -6 -6z"/>
<path d="M1850 1781 c0 -11 4 -22 9 -25 4 -3 6 6 3 19 -5 30 -12 33 -12 6z"/>
<path d="M3015 1610 c-3 -5 -1 -10 4 -10 6 0 11 5 11 10 0 6 -2 10 -4 10 -3 0
-8 -4 -11 -10z"/>
<path d="M2820 1429 c0 -5 5 -7 10 -4 6 3 10 8 10 11 0 2 -4 4 -10 4 -5 0 -10
-5 -10 -11z"/>
<path d="M2196 1331 c-4 -7 -5 -15 -2 -18 9 -9 19 4 14 18 -4 11 -6 11 -12 0z"/>
<path d="M2325 1310 c-7 -11 2 -30 13 -30 4 0 8 9 9 20 2 21 -11 27 -22 10z"/>
<path d="M1230 1050 c-30 -10 -53 -19 -50 -20 20 -7 40 -7 40 0 0 4 20 13 45
19 25 6 45 13 45 16 0 8 -22 4 -80 -15z"/>
<path d="M1194 985 c-3 -8 -4 -20 -2 -27 3 -7 7 -1 10 15 6 29 1 36 -8 12z"/>
<path d="M497 883 c-34 -14 -36 -16 -20 -29 10 -7 26 -14 35 -14 9 0 20 -5 24
-11 5 -9 -4 -10 -32 -5 -28 5 -35 4 -24 -3 22 -16 66 -13 80 4 10 12 9 20 -6
44 -19 29 -19 29 -57 14z"/>
<path d="M345 820 c-16 -5 -13 -8 14 -13 44 -9 53 -9 47 2 -8 13 -39 19 -61
11z"/>
<path d="M193 810 c-13 -5 -23 -11 -23 -13 0 -2 35 -4 78 -4 74 -1 76 -1 42
12 -41 16 -67 17 -97 5z"/>
<path d="M921 804 c0 -11 3 -14 6 -6 3 7 2 16 -1 19 -3 4 -6 -2 -5 -13z"/>
<path d="M25 635 c11 -9 30 -18 43 -22 12 -3 22 -9 22 -14 0 -5 7 -9 15 -9 8
0 15 -5 15 -11 0 -5 5 -7 12 -3 8 5 9 2 5 -9 -5 -12 -1 -17 13 -17 41 0 14 33
-55 68 -22 10 -51 22 -65 26 -24 7 -24 7 -5 -9z"/>
</g>
</svg>
